<svg width="24" height="24" viewBox="0 0 24 24" fill="none" xmlns="http://www.w3.org/2000/svg">
<g clip-path="url(#clip0_1031_2936)">
<path fill-rule="evenodd" clip-rule="evenodd" d="M20.26 22.58C16.26 22.26 12.55 22.77 8.65997 22.77C7.72997 22.77 6.76997 22.77 5.80997 22.66C5.25997 22.66 3.87997 22.66 2.68997 22.5C2.01997 22.41 1.38997 22.32 1.16997 21.99C1.08238 21.7467 1.05829 21.4852 1.09997 21.23C1.09997 20.59 1.18997 19.87 1.18997 19.58C1.18997 17.49 1.13997 14.73 1.18997 12.23C1.18997 11.11 1.18997 10.04 1.26997 9.1C1.26997 8.53 1.32997 7.96 1.33997 7.38C1.40997 5.11 1.33997 2.84 1.45997 0.570001C1.46281 0.529413 1.45707 0.488683 1.44313 0.450458C1.42919 0.412233 1.40736 0.377369 1.37907 0.348132C1.35078 0.318894 1.31665 0.295937 1.2789 0.280754C1.24115 0.26557 1.20063 0.2585 1.15997 0.260001C1.0864 0.259826 1.01552 0.287619 0.96167 0.337751C0.907824 0.387883 0.875045 0.456606 0.869971 0.530001C0.709971 2.53 0.669971 4.53 0.569971 6.53C0.529971 7.35 0.469971 8.2 0.399971 9C0.286896 10.4211 0.210204 11.8449 0.169971 13.27C0.109971 15.47 0.109971 17.77 0.0999713 19.58C0.0999713 19.92 -0.0100287 20.81 -2.86647e-05 21.51C-0.0062407 21.8894 0.0831745 22.2643 0.259971 22.6C0.712004 23.099 1.33083 23.4155 1.99997 23.49C3.2376 23.6373 4.48378 23.7008 5.72997 23.68C6.72997 23.74 7.72997 23.75 8.66997 23.68C12.55 23.59 16.2 22.98 20.22 23.19C20.3036 23.1906 20.3846 23.1603 20.4473 23.105C20.51 23.0496 20.5501 22.9731 20.56 22.89C20.5555 22.8109 20.5227 22.7361 20.4676 22.6792C20.4126 22.6223 20.3389 22.5871 20.26 22.58Z" fill="black"/>
<path fill-rule="evenodd" clip-rule="evenodd" d="M6.99998 6.3C6.92733 6.09891 6.81334 5.91527 6.66536 5.76094C6.51738 5.6066 6.3387 5.485 6.14083 5.40397C5.94296 5.32294 5.73031 5.28428 5.51658 5.29049C5.30286 5.29669 5.09281 5.34763 4.89998 5.44C4.58573 5.61489 4.32037 5.86581 4.1282 6.1698C3.93602 6.47378 3.82317 6.82112 3.79998 7.18C3.77868 7.37347 3.80044 7.56926 3.86368 7.75333C3.92692 7.93741 4.03009 8.10522 4.1658 8.24475C4.30151 8.38428 4.46639 8.49207 4.64864 8.5604C4.83089 8.62873 5.02599 8.65592 5.21998 8.64C5.36842 8.6364 5.51599 8.61627 5.65998 8.58C5.8556 8.51807 6.04616 8.44118 6.22998 8.35C6.26867 8.33159 6.30297 8.30511 6.33057 8.27234C6.35816 8.23957 6.37842 8.20126 6.38998 8.16C6.65087 7.93451 6.84548 7.64227 6.95294 7.3146C7.0604 6.98694 7.07666 6.6362 6.99998 6.3ZM5.92998 7.64C5.87815 7.66268 5.83327 7.69869 5.79989 7.74436C5.76651 7.79003 5.74584 7.84374 5.73998 7.9H5.60998C5.49714 7.915 5.38281 7.915 5.26998 7.9C5.14621 7.8914 5.02937 7.83965 4.93983 7.75377C4.8503 7.66788 4.79373 7.55331 4.77998 7.43C4.78397 7.28024 4.82156 7.13329 4.88998 7C4.98809 6.75936 5.16417 6.55863 5.38998 6.43C5.78998 6.2 6.15998 6.55 6.25998 6.92C6.23326 6.96181 6.21907 7.01039 6.21907 7.06C6.21907 7.10962 6.23326 7.15819 6.25998 7.2C6.24747 7.29554 6.21053 7.38623 6.15272 7.46331C6.09491 7.54039 6.01819 7.60125 5.92998 7.64Z" fill="black"/>
<path fill-rule="evenodd" clip-rule="evenodd" d="M20 4.54C20.2777 4.77595 20.6364 4.89433 21 4.87C21.1487 4.87042 21.2968 4.85023 21.44 4.81C21.6346 4.75418 21.8224 4.67704 22 4.58C22.0398 4.56167 22.0755 4.53535 22.1047 4.50266C22.134 4.46998 22.1562 4.43163 22.17 4.39C22.4905 4.21982 22.7311 3.93026 22.8396 3.58401C22.9482 3.23776 22.916 2.86269 22.75 2.54C22.6795 2.33836 22.5673 2.15385 22.4207 1.99848C22.2742 1.84311 22.0965 1.72038 21.8993 1.63829C21.7021 1.55621 21.4898 1.5166 21.2763 1.52207C21.0627 1.52753 20.8527 1.57794 20.66 1.67C20.345 1.84651 20.0792 2.09917 19.8871 2.40488C19.6949 2.7106 19.5825 3.05961 19.56 3.42C19.5503 3.51643 19.5503 3.61358 19.56 3.71C19.6105 4.02783 19.7653 4.31983 20 4.54ZM21.72 3.87C21.6669 3.8908 21.6208 3.9263 21.5872 3.97235C21.5535 4.0184 21.5337 4.07309 21.53 4.13H21.4C21.2875 4.14941 21.1725 4.14941 21.06 4.13C20.975 4.12094 20.8931 4.09287 20.8204 4.04786C20.7477 4.00285 20.686 3.94207 20.64 3.87L20.71 3.79C20.7692 3.7301 20.8025 3.64925 20.8025 3.565C20.8025 3.48075 20.7692 3.39991 20.71 3.34C20.71 3.34 20.64 3.34 20.61 3.34C20.606 3.30679 20.606 3.27322 20.61 3.24C20.701 2.99256 20.8787 2.7865 21.11 2.66C21.51 2.42 21.88 2.79 21.98 3.16C22.0192 3.29262 22.0129 3.43454 21.9622 3.56319C21.9115 3.69184 21.8192 3.79984 21.7 3.87H21.72Z" fill="black"/>
<path fill-rule="evenodd" clip-rule="evenodd" d="M7.40997 8.00001L7.53997 8.09001L8.71997 8.89001C8.78997 8.89001 8.96997 9.09001 9.10997 9.17001C9.20278 9.21742 9.30576 9.24145 9.40997 9.24001C9.59662 9.22074 9.77032 9.13566 9.89997 9.00001C10.1406 8.73347 10.3518 8.44179 10.53 8.13001C10.875 7.66646 11.2456 7.22244 11.64 6.80001C12.44 5.95001 12.58 6.22001 13.25 6.51001L15.19 7.40001C15.43 7.52001 15.75 7.73001 16.06 7.87001C16.2278 7.9492 16.4064 8.00312 16.59 8.03001C16.6644 8.03891 16.7399 8.03096 16.8109 8.00672C16.8819 7.98249 16.9465 7.9426 17 7.89001C17.06 7.83001 17.19 7.64001 17.21 7.62001L17.88 6.80001C18.31 6.28001 18.76 5.80001 19.22 5.27001C19.66 4.78001 19.41 4.27001 18.89 4.54001L18.65 4.76001C18.14 5.24001 17.65 5.76001 17.17 6.24001L16.47 7.01001L16.34 6.94001C16.1 6.80001 15.85 6.62001 15.66 6.50001L14.85 6.08001C14.45 5.89001 14.04 5.72001 13.64 5.54001C13.3195 5.3844 12.9846 5.26048 12.64 5.17001C12.3967 5.08771 12.1332 5.08771 11.89 5.17001C11.4677 5.40327 11.0942 5.71561 10.79 6.09001C10.4111 6.58351 10.0701 7.105 9.76997 7.65001C9.69997 7.75001 9.45997 8.05001 9.27997 8.30001L9.13997 8.25001L7.91997 7.56001L7.64997 7.40001C6.99997 7.38001 6.93997 7.60001 7.40997 8.00001Z" fill="black"/>
<path fill-rule="evenodd" clip-rule="evenodd" d="M5.07999 16.28C4.88354 16.1914 4.6705 16.1456 4.45499 16.1456C4.23948 16.1456 4.02644 16.1914 3.82999 16.28C3.51902 16.4613 3.25654 16.7151 3.06499 17.0198C2.87343 17.3246 2.75849 17.6712 2.72999 18.03C2.70793 18.2249 2.72992 18.4223 2.79434 18.6075C2.85876 18.7928 2.96395 18.9612 3.10217 19.1004C3.24039 19.2396 3.40809 19.346 3.59291 19.4116C3.77773 19.4773 3.97494 19.5007 4.16999 19.48C4.31877 19.4811 4.46694 19.4609 4.60999 19.42C4.80866 19.3669 5.00009 19.2896 5.17999 19.19C5.21948 19.1728 5.25446 19.1467 5.28221 19.1137C5.30996 19.0808 5.32974 19.0418 5.33999 19C5.66222 18.8315 5.90495 18.5427 6.01542 18.1963C6.1259 17.8499 6.0952 17.4739 5.92999 17.15C5.76207 16.7661 5.45983 16.4568 5.07999 16.28ZM4.87999 18.52C4.82893 18.541 4.7844 18.5752 4.75099 18.6192C4.71759 18.6631 4.69653 18.7152 4.68999 18.77H4.55999C4.44715 18.7849 4.33283 18.7849 4.21999 18.77C4.09555 18.7634 3.97763 18.7123 3.88769 18.626C3.79776 18.5397 3.7418 18.424 3.72999 18.3C3.72417 18.1363 3.76214 17.9741 3.83999 17.83C3.93532 17.5876 4.11212 17.3861 4.33999 17.26C4.73999 17.02 5.11999 17.38 5.20999 17.76C5.26326 17.9048 5.25869 18.0646 5.19724 18.2061C5.13578 18.3476 5.02217 18.46 4.87999 18.52Z" fill="black"/>
<path fill-rule="evenodd" clip-rule="evenodd" d="M23.87 9.45C23.7971 9.24898 23.6831 9.06534 23.5354 8.91079C23.3876 8.75623 23.2093 8.63415 23.0117 8.5523C22.8141 8.47046 22.6017 8.43066 22.3879 8.43543C22.1742 8.44019 21.9637 8.48943 21.77 8.58C21.4562 8.75791 21.1914 9.01091 20.9994 9.31634C20.8074 9.62177 20.6943 9.97006 20.67 10.33C20.6547 10.6846 20.7528 11.0349 20.95 11.33C21.2738 11.614 21.6807 11.7858 22.11 11.82C22.2588 11.8211 22.407 11.8009 22.55 11.76C22.747 11.7063 22.938 11.6325 23.12 11.54C23.1602 11.5211 23.1955 11.4933 23.2233 11.4586C23.251 11.4239 23.2704 11.3834 23.28 11.34C23.4448 11.2567 23.5911 11.1412 23.7104 11.0003C23.8297 10.8594 23.9196 10.696 23.9746 10.5197C24.0296 10.3435 24.0487 10.158 24.0307 9.97427C24.0128 9.79052 23.9581 9.61225 23.87 9.45ZM22.82 10.79C22.7662 10.8097 22.7194 10.8449 22.6856 10.8912C22.6518 10.9375 22.6324 10.9927 22.63 11.05H22.5C22.3875 11.0694 22.2725 11.0694 22.16 11.05C22.0365 11.0457 21.9187 10.9967 21.8285 10.9121C21.7384 10.8275 21.6821 10.713 21.67 10.59C21.6634 10.4231 21.7013 10.2574 21.78 10.11C21.8781 9.86936 22.0542 9.66863 22.28 9.54C22.68 9.3 23.06 9.67 23.15 10.04C23.2003 10.1836 23.1942 10.3409 23.133 10.4801C23.0717 10.6193 22.9598 10.7301 22.82 10.79Z" fill="black"/>
<path fill-rule="evenodd" clip-rule="evenodd" d="M20.91 12.23C21.29 11.82 21.07 11.23 20.59 11.59C20.48 11.69 20.36 11.78 20.25 11.89C19.93 12.2 19.61 12.53 19.32 12.89C19.03 13.25 18.78 13.69 18.1 13.25C17.7185 12.9443 17.3608 12.61 17.03 12.25C16.808 12.0145 16.5558 11.8094 16.28 11.64C16.1878 11.5886 16.0856 11.5576 15.9804 11.549C15.8752 11.5404 15.7694 11.5543 15.67 11.59C15.2506 11.7684 14.8597 12.0076 14.51 12.3C13.895 12.8592 13.3234 13.4643 12.8 14.11C12.3973 14.6119 11.9181 15.0472 11.38 15.4C11.291 15.2944 11.2076 15.1842 11.13 15.07C10.8 14.77 10.42 14.37 10.01 14.07C9.71614 13.8295 9.37565 13.6524 9.00999 13.55C8.65884 13.4454 8.28147 13.4739 7.94999 13.63C7.57648 13.8624 7.23948 14.1488 6.94999 14.48L5.77999 15.58C5.28999 16.14 5.77999 16.28 6.41999 15.87L7.41999 14.97C7.66151 14.7119 7.94148 14.4926 8.24999 14.32C8.40432 14.2598 8.57566 14.2598 8.72999 14.32C8.97992 14.4123 9.20804 14.5553 9.39999 14.74C9.76999 15.05 10.1 15.45 10.4 15.74C10.4 15.74 10.79 16.18 10.95 16.31C11.0341 16.382 11.136 16.4302 11.245 16.4496C11.354 16.4689 11.4662 16.4587 11.57 16.42C11.9846 16.227 12.3687 15.9744 12.71 15.67C13.3078 15.1029 13.8689 14.4983 14.39 13.86C14.7941 13.3558 15.277 12.9202 15.82 12.57C16.0064 12.6537 16.1812 12.7613 16.34 12.89C16.7914 13.3431 17.2911 13.7455 17.83 14.09C18.1214 14.2511 18.4471 14.3403 18.78 14.35C18.9533 14.34 19.1185 14.2733 19.25 14.16C19.49 13.9111 19.7013 13.636 19.88 13.34C20.15 13.01 20.43 12.68 20.73 12.34L20.89 12.18L20.91 12.23Z" fill="black"/>
</g>
<defs>
<clipPath id="clip0_1031_2936">
<rect width="24" height="24" fill="white"/>
</clipPath>
</defs>
</svg>
