<svg width="24" height="24" viewBox="0 0 24 24" fill="none" xmlns="http://www.w3.org/2000/svg">
<g clip-path="url(#clip0_1031_2947)">
<path fill-rule="evenodd" clip-rule="evenodd" d="M4.42999 10.23C3.42999 10.13 3.42999 10.68 4.42999 10.84C5.09999 10.9 5.83999 10.95 6.63999 10.98C9.45999 11.08 12.8 10.98 14.71 10.98L16.71 11.04L16.89 11.1C16.8949 11.1599 16.8949 11.2201 16.89 11.28C16.89 11.65 16.79 12.06 16.77 12.28C16.8071 12.8661 16.8071 13.4539 16.77 14.04C16.77 14.2 16.6 14.25 16.34 14.26H15.71H14.62L4.42999 14C3.34999 13.9 3.53999 14.53 4.42999 14.66L6.57999 14.78C9.35999 14.94 12.64 15.16 14.52 15.28L15.61 15.35H16.3C16.5407 15.3753 16.7838 15.3369 17.0049 15.2386C17.2261 15.1404 17.4175 14.9856 17.56 14.79C17.7275 14.5232 17.8175 14.215 17.82 13.9V12.37C17.82 12.1 17.93 11.61 17.94 11.2C17.9655 10.9603 17.9382 10.718 17.86 10.49C17.8259 10.3985 17.7726 10.3155 17.7036 10.2464C17.6345 10.1774 17.5515 10.1241 17.46 10.09C17.2312 10.0316 16.9961 10.0014 16.76 10H14.69C12.79 10.07 9.45999 10.32 6.68999 10.33C5.84999 10.29 5.09999 10.27 4.42999 10.23Z" fill="black"/>
<path fill-rule="evenodd" clip-rule="evenodd" d="M4.43 3.61H5.29C7.29 3.55 9.56 3.61 11.12 3.61C11.34 3.61 11.79 3.56 12.22 3.61C13.03 3.61 12.74 3.97 12.72 4.98C12.72 6.22 12.97 6.68 12.27 6.82C11.6087 6.94364 10.941 7.03044 10.27 7.08C8.33 7.21 5.9 7.17 4.42 7.17C3.48 7.37 3.42 7.59 4.42 7.86C5.89 7.93 8.35 8.08 10.31 8.03C11.155 8.03006 11.9972 7.93275 12.82 7.74C13.0918 7.66986 13.3446 7.54005 13.56 7.36C13.7292 7.15767 13.8245 6.90371 13.83 6.64C13.88 6.11 13.77 5.24 13.78 5.01C13.79 4.78 13.9 4.1 13.88 3.68C13.8961 3.4411 13.8367 3.20318 13.71 3C13.447 2.72548 13.0896 2.56107 12.71 2.54C12.1515 2.48176 11.5885 2.48176 11.03 2.54C9.47 2.65 7.2 2.71 5.21 2.88L4.43 3C3.6 3.23 3.53 3.45 4.43 3.61Z" fill="black"/>
<path fill-rule="evenodd" clip-rule="evenodd" d="M22 18.07C21.9836 17.9668 21.9446 17.8684 21.8859 17.782C21.8271 17.6956 21.75 17.6232 21.66 17.57C21.5078 17.4957 21.3391 17.4613 21.17 17.47C20.84 17.47 20.34 17.56 20.17 17.56L16.91 17.61C15.44 17.68 13.36 17.72 11.18 17.75L4.45998 17.81C3.45998 18.05 3.45998 18.48 4.45998 18.43C6.83998 18.49 9.89998 18.57 12.62 18.61H16.95H20.19C20.4228 18.6313 20.6571 18.6313 20.89 18.61C20.8685 18.8595 20.8685 19.1105 20.89 19.36C20.9168 19.9888 20.88 20.6186 20.78 21.24C20.7 21.45 20.52 21.58 20.17 21.62C19.8851 21.6602 19.5977 21.6803 19.31 21.68H17.17C15.66 21.68 13.55 21.68 11.34 21.62C8.96998 21.55 6.49998 21.45 4.48998 21.36C3.38998 21.26 3.32998 21.91 4.48998 22.04C6.48998 22.19 8.94998 22.36 11.3 22.48C13.65 22.6 15.66 22.69 17.18 22.69C17.89 22.69 18.61 22.75 19.33 22.75C19.66 22.75 19.98 22.75 20.33 22.69C20.6579 22.6846 20.9762 22.5779 21.2412 22.3846C21.5061 22.1912 21.7048 21.9207 21.81 21.61C21.9503 20.9057 22.0106 20.1878 21.99 19.47C22.0386 19.0048 22.0419 18.5359 22 18.07Z" fill="black"/>
<path fill-rule="evenodd" clip-rule="evenodd" d="M3.15 11.24V3.13C3.15 2.13 3.07 1.22 3 0.270001C2.99899 0.230455 2.98962 0.191572 2.9725 0.155912C2.95537 0.120251 2.93089 0.0886245 2.90065 0.0631145C2.87042 0.0376044 2.83512 0.0187903 2.79709 0.00791177C2.75906 -0.00296681 2.71915 -0.00566293 2.68 1.04099e-06C2.60661 0.00507463 2.53788 0.0378538 2.48775 0.0916993C2.43762 0.145545 2.40982 0.216431 2.41 0.290001C2.41 3.09 2.29 5.89 2.17 8.69C2.09 10.56 2 12.44 2 14.31C2 16.72 2.32 23.04 2.39 23.71C2.41532 23.7737 2.46042 23.8276 2.51866 23.8637C2.5769 23.8998 2.64519 23.9163 2.7135 23.9107C2.78181 23.9051 2.84651 23.8777 2.89809 23.8326C2.94966 23.7875 2.98539 23.727 3 23.66L3.15 11.24Z" fill="black"/>
</g>
<defs>
<clipPath id="clip0_1031_2947">
<rect width="24" height="24" fill="white"/>
</clipPath>
</defs>
</svg>
